<svg xmlns="http://www.w3.org/2000/svg" viewBox="0 0 100 100" width="200" height="200">
  <!-- 螃蟹的身体 -->
  <circle cx="50" cy="50" r="20" fill="#FF6347" />

  <!-- 左钳 -->
  <path d="M30 40 C20 30, 10 40, 15 50 C10 60, 20 70, 30 60 Z" fill="#FF6347" />

  <!-- 右钳 -->
  <path d="M70 40 C80 30, 90 40, 85 50 C90 60, 80 70, 70 60 Z" fill="#FF6347" />

  <!-- 左腿 -->
  <path d="M40 60 C30 65, 30 80, 40 75" stroke="#FF6347" stroke-width="3" fill="none" />
  <path d="M35 70 C25 75, 25 90, 35 85" stroke="#FF6347" stroke-width="3" fill="none" />

  <!-- 右腿 -->
  <path d="M60 60 C70 65, 70 80, 60 75" stroke="#FF6347" stroke-width="3" fill="none" />
  <path d="M65 70 C75 75, 75 90, 65 85" stroke="#FF6347" stroke-width="3" fill="none" />

  <!-- 螃蟹的眼睛 -->
  <circle cx="42" cy="45" r="3" fill="#FFFFFF" />
  <circle cx="58" cy="45" r="3" fill="#FFFFFF" />
  <circle cx="42" cy="45" r="1.5" fill="#000000" />
  <circle cx="58" cy="45" r="1.5" fill="#000000" />

  <!-- 螃蟹的嘴 -->
  <path d="M45 55 C50 60, 55 60, 55 55" stroke="#000000" stroke-width="2" fill="none" />
</svg>
